<svg width="16" height="16" viewBox="0 0 16 16" fill="none" xmlns="http://www.w3.org/2000/svg">
<path fill-rule="evenodd" clip-rule="evenodd" d="M8.94123 8.00024L12.4593 11.5215C12.7195 11.7819 12.7193 12.2041 12.4589 12.4643C12.1984 12.7245 11.7763 12.7243 11.516 12.4639L7.99772 8.94235L4.47122 12.4636C4.21067 12.7238 3.78856 12.7235 3.52841 12.4629C3.26825 12.2024 3.26857 11.7803 3.52911 11.5201L7.05534 7.99912L3.53064 4.47123C3.27041 4.21076 3.2706 3.78865 3.53107 3.52842C3.79154 3.26819 4.21365 3.26838 4.47388 3.52885L7.99885 7.05701L11.5161 3.54496C11.7767 3.2848 12.1988 3.28512 12.4589 3.54566C12.7191 3.8062 12.7188 4.22831 12.4582 4.48847L8.94123 8.00024Z" fill="#92929D"/>
</svg>
