<svg width="16" height="16" viewBox="0 0 16 16" fill="none" xmlns="http://www.w3.org/2000/svg">
<path d="M2.66667 4.66683H13.3333C13.7015 4.66683 14 4.36835 14 4.00016C14 3.63197 13.7015 3.3335 13.3333 3.3335H2.66667C2.29848 3.3335 2 3.63197 2 4.00016C2 4.36835 2.29848 4.66683 2.66667 4.66683Z" fill="#92929D"/>
<path d="M6 12.6668H10C10.3682 12.6668 10.6667 12.3684 10.6667 12.0002C10.6667 11.632 10.3682 11.3335 10 11.3335H6C5.63181 11.3335 5.33333 11.632 5.33333 12.0002C5.33333 12.3684 5.63181 12.6668 6 12.6668Z" fill="#92929D"/>
<path d="M11.3333 8.66683H4.66667C4.29848 8.66683 4 8.36835 4 8.00016C4 7.63197 4.29848 7.3335 4.66667 7.3335H11.3333C11.7015 7.3335 12 7.63197 12 8.00016C12 8.36835 11.7015 8.66683 11.3333 8.66683Z" fill="#92929D"/>
</svg>
