<svg width="24" height="24" viewBox="0 0 24 24" fill="none" xmlns="http://www.w3.org/2000/svg">
<path d="M10 6H17C17.5523 6 18 5.55228 18 5C18 4.44772 17.5523 4 17 4H10C9.44772 4 9 4.44772 9 5C9 5.55228 9.44772 6 10 6Z" fill="white"/>
<path d="M9 20H19C19.5523 20 20 19.5523 20 19C20 18.4477 19.5523 18 19 18H9C8.44772 18 8 18.4477 8 19C8 19.5523 8.44772 20 9 20Z" fill="white"/>
<path d="M16 13H5C4.44772 13 4 12.5523 4 12C4 11.4477 4.44772 11 5 11H16C16.5523 11 17 11.4477 17 12C17 12.5523 16.5523 13 16 13Z" fill="white"/>
</svg>
