<svg width="24" height="24" viewBox="0 0 24 24" fill="none" xmlns="http://www.w3.org/2000/svg">
<path fill-rule="evenodd" clip-rule="evenodd" d="M9.63086 10.7896C9.44972 10.5989 9.41655 10.1561 9.6506 9.63026C10.5281 7.28477 10.6471 6.84953 10.0848 6.25763L6.47548 2.45835C5.78231 1.72871 4.68097 1.91445 3.99996 2.63131C1.33335 5.43826 1.33335 9.96903 3.99996 12.776L10.7423 19.8732C13.4365 22.7092 17.827 22.7092 20.5212 19.8732C21.1798 19.1799 21.3429 18.1083 20.6855 17.4162L17.0761 13.6169C16.4712 12.9802 16.0602 13.1047 13.8056 14.0372C13.2857 14.2911 12.9292 14.2615 12.7707 14.0948L9.63086 10.7896ZM19.0113 18.5577C17.1017 20.5015 14.0782 20.4808 12.1923 18.4957L5.44995 11.3985C3.56023 9.4093 3.51766 6.19273 5.32226 4.14825L8.328 7.31219L8.32107 7.33774C8.22675 7.68264 8.05248 8.19787 7.80014 8.87393C7.28582 10.0248 7.3834 11.3277 8.18086 12.1671L11.3208 15.4723C12.1409 16.3356 13.4429 16.4436 14.6301 15.8581C15.1804 15.6327 15.6471 15.4569 15.9696 15.3559L19.0113 18.5577Z" fill="white"/>
<path d="M13.7 10.2002C13.7 9.75839 13.3418 9.40021 12.9 9.40021C12.3477 9.40021 11.9 8.9525 11.9 8.40021C11.9 7.84793 12.3477 7.40021 12.9 7.40021C14.4464 7.40021 15.7 8.65382 15.7 10.2002C15.7 10.7525 15.2523 11.2002 14.7 11.2002C14.1477 11.2002 13.7 10.7525 13.7 10.2002Z" fill="white"/>
<path d="M12.9 6.70021C14.833 6.70021 16.4 8.26722 16.4 10.2002C16.4 10.7525 16.8477 11.2002 17.4 11.2002C17.9523 11.2002 18.4 10.7525 18.4 10.2002C18.4 7.16265 15.9376 4.70021 12.9 4.70021C12.3477 4.70021 11.9 5.14793 11.9 5.70021C11.9 6.2525 12.3477 6.70021 12.9 6.70021Z" fill="white"/>
<path d="M19.1 10.2002C19.1 6.77605 16.3242 4.00021 12.9 4.00021C12.3477 4.00021 11.9 3.5525 11.9 3.00021C11.9 2.44793 12.3477 2.00021 12.9 2.00021C17.4287 2.00021 21.1 5.67148 21.1 10.2002C21.1 10.7525 20.6523 11.2002 20.1 11.2002C19.5477 11.2002 19.1 10.7525 19.1 10.2002Z" fill="white"/>
</svg>
